<svg width="27" height="30" viewBox="0 0 27 30" fill="none" xmlns="http://www.w3.org/2000/svg">
<path d="M21.7207 5.63086C20.2793 2.31445 16.9746 0 13.125 0C9.27539 0 5.9707 2.31445 4.5293 5.63086C3.56836 5.71289 2.8125 6.51562 2.8125 7.5V11.25C2.8125 12.2344 3.56836 13.0371 4.5293 13.1191C5.9707 16.4355 9.27539 18.75 13.125 18.75C16.9746 18.75 20.2793 16.4355 21.7207 13.1191C22.6816 13.0371 23.4375 12.2344 23.4375 11.25V7.5C23.4375 6.51562 22.6816 5.71289 21.7207 5.63086ZM19.6875 8.4375V9.375C19.6875 12.4805 17.168 15 14.0625 15H12.1875C9.08203 15 6.5625 12.4805 6.5625 9.375V8.4375C6.5625 6.88477 7.82227 5.625 9.375 5.625H16.875C18.4277 5.625 19.6875 6.88477 19.6875 8.4375ZM11.0918 9.5332L10.7402 8.29102C10.6875 8.09766 10.5117 7.96875 10.3125 7.96875C10.1133 7.96875 9.9375 8.09766 9.88477 8.29102L9.5332 9.5332L8.29102 9.88477C8.09766 9.9375 7.96875 10.1133 7.96875 10.3125C7.96875 10.5117 8.09766 10.6875 8.29102 10.7402L9.5332 11.0918L9.88477 12.334C9.9375 12.5273 10.1133 12.6562 10.3125 12.6562C10.5117 12.6562 10.6875 12.5273 10.7402 12.334L11.0918 11.0918L12.334 10.7402C12.5273 10.6875 12.6562 10.5117 12.6562 10.3125C12.6562 10.1133 12.5273 9.9375 12.334 9.88477L11.0918 9.5332ZM6.60352 18.5449C2.73633 20.0742 0 23.8477 0 28.2598C0 29.2207 0.779297 30 1.74023 30H7.5V26.25C7.5 25.2129 8.33789 24.375 9.375 24.375H16.875C17.9121 24.375 18.75 25.2129 18.75 26.25V30H24.5098C25.4707 30 26.25 29.2207 26.25 28.2598C26.25 23.8477 23.5137 20.0742 19.6465 18.5449C17.8066 19.8516 15.5566 20.625 13.125 20.625C10.6934 20.625 8.44336 19.8516 6.60352 18.5449ZM10.3125 26.25C9.79688 26.25 9.375 26.6719 9.375 27.1875V30H11.25V27.1875C11.25 26.6719 10.8281 26.25 10.3125 26.25ZM15.9375 28.125C16.1861 28.125 16.4246 28.0262 16.6004 27.8504C16.7762 27.6746 16.875 27.4361 16.875 27.1875C16.875 26.9389 16.7762 26.7004 16.6004 26.5246C16.4246 26.3488 16.1861 26.25 15.9375 26.25C15.6889 26.25 15.4504 26.3488 15.2746 26.5246C15.0988 26.7004 15 26.9389 15 27.1875C15 27.4361 15.0988 27.6746 15.2746 27.8504C15.4504 28.0262 15.6889 28.125 15.9375 28.125Z" fill="#FF986D"/>
</svg>
