<svg width="42" height="25" viewBox="0 0 42 25" fill="none" xmlns="http://www.w3.org/2000/svg">
<path d="M20.6897 0C22.2901 0 23.825 0.635774 24.9567 1.76746C26.0884 2.89914 26.7241 4.43404 26.7241 6.03448C26.7241 7.63493 26.0884 9.16982 24.9567 10.3015C23.825 11.4332 22.2901 12.069 20.6897 12.069C19.0892 12.069 17.5543 11.4332 16.4226 10.3015C15.2909 9.16982 14.6552 7.63493 14.6552 6.03448C14.6552 4.43404 15.2909 2.89914 16.4226 1.76746C17.5543 0.635774 19.0892 0 20.6897 0ZM8.62069 4.31034C9.58621 4.31034 10.4828 4.56897 11.2586 5.03448C11 7.5 11.7241 9.94828 13.2069 11.8621C12.3448 13.5172 10.6207 14.6552 8.62069 14.6552C7.24888 14.6552 5.93326 14.1102 4.96324 13.1402C3.99323 12.1702 3.44828 10.8546 3.44828 9.48276C3.44828 8.11095 3.99323 6.79532 4.96324 5.82531C5.93326 4.85529 7.24888 4.31034 8.62069 4.31034ZM32.7586 4.31034C34.1304 4.31034 35.4461 4.85529 36.4161 5.82531C37.3861 6.79532 37.931 8.11095 37.931 9.48276C37.931 10.8546 37.3861 12.1702 36.4161 13.1402C35.4461 14.1102 34.1304 14.6552 32.7586 14.6552C30.7586 14.6552 29.0345 13.5172 28.1724 11.8621C29.6756 9.92141 30.3734 7.4762 30.1207 5.03448C30.8966 4.56897 31.7931 4.31034 32.7586 4.31034ZM9.48276 21.9828C9.48276 18.4138 14.5 15.5172 20.6897 15.5172C26.8793 15.5172 31.8966 18.4138 31.8966 21.9828V25H9.48276V21.9828ZM0 25V22.4138C0 20.0172 3.25862 18 7.67241 17.4138C6.65517 18.5862 6.03448 20.2069 6.03448 21.9828V25H0ZM41.3793 25H35.3448V21.9828C35.3448 20.2069 34.7241 18.5862 33.7069 17.4138C38.1207 18 41.3793 20.0172 41.3793 22.4138V25Z" fill="#FF986D"/>
</svg>
