<svg width="44" height="30" viewBox="0 0 44 30" fill="none" xmlns="http://www.w3.org/2000/svg">
<path d="M6.90348 16.5946C7.70121 24.1193 14.0847 30 21.8183 30C23.9177 30.0023 25.994 29.5612 27.9111 28.7054C24.4765 27.2966 20.7478 25.4523 17.0217 23.3054C13.3808 21.2097 9.8728 18.8778 6.90348 16.5946ZM41.9932 22.1173C41.2688 21.1534 40.2887 20.0889 39.0955 18.9639C38.8679 19.9552 38.5542 20.9248 38.158 21.8616C40.6057 24.3758 40.9876 25.7258 40.8998 25.9909C40.7293 26.181 39.4467 26.5781 35.9438 25.6901C35.4421 25.5628 34.8932 25.4077 34.2972 25.2247C33.9131 25.1065 33.5214 24.979 33.1219 24.842C33.7494 24.1224 34.307 23.3448 34.7873 22.5196C34.8018 22.4949 34.8171 22.4702 34.8316 22.4446C36.133 20.1793 36.818 17.6125 36.8182 15C36.8186 14.4591 36.7901 13.9186 36.733 13.3807C35.9174 5.86619 29.5398 2.36702e-06 21.8183 2.36702e-06C18.542 -0.00184086 15.3558 1.07288 12.7501 3.05881C11.1707 4.26088 9.84347 5.76216 8.84411 7.47699C8.83047 7.5017 8.81513 7.52642 8.80064 7.55114C8.32567 8.3786 7.93098 9.24961 7.62195 10.1523C7.30433 9.87557 6.9978 9.60085 6.70235 9.32812C6.24297 8.90199 5.83558 8.50739 5.47337 8.13494C2.9532 5.55597 2.6532 4.24773 2.73246 4.00568C2.91655 3.79858 4.27507 3.4483 7.68672 4.30824C8.30283 3.49682 8.98713 2.73952 9.73217 2.0446C8.12479 1.56648 6.68189 1.24773 5.46655 1.1071C2.84752 0.807104 1.1336 1.32273 0.370813 2.64205C0.0946769 3.11761 -0.17038 3.92813 0.138995 5.07955C0.596665 6.78921 2.22791 8.86364 4.53672 11.0369C5.27223 11.7298 6.07592 12.4321 6.93331 13.1369C7.55717 13.6483 8.21172 14.1648 8.88501 14.6778C9.33445 15.0187 9.79325 15.3597 10.2614 15.7006C10.7296 16.0415 11.204 16.3761 11.6847 16.7045C13.8504 18.2054 16.1387 19.6466 18.3827 20.9395C19.1975 21.4088 20.0111 21.8633 20.8236 22.3031C21.6361 22.7429 22.4421 23.1636 23.2415 23.5653C25.108 24.5028 26.9361 25.3483 28.6842 26.0736C29.4336 26.3849 30.1668 26.6736 30.8839 26.9395C31.8972 27.3162 32.8756 27.6477 33.808 27.9273L33.9018 27.9554C36.0947 28.6082 37.9432 28.9517 39.3972 28.9781H39.5455C41.3898 28.9781 42.6393 28.4344 43.2597 27.3588C44.0344 26.0276 43.6074 24.2633 41.9932 22.1173Z" fill="#FF986D"/>
</svg>
