<svg width="30" height="30" viewBox="0 0 30 30" fill="none" xmlns="http://www.w3.org/2000/svg">
<path d="M0.41729 12.435L6.79045 6.06188C7.14451 5.70782 7.5618 5.45492 8.04232 5.30317C8.52284 5.15143 9.016 5.12614 9.5218 5.2273L11.4944 5.64459C10.1288 7.26317 9.05393 8.73001 8.26993 10.0451C7.48593 11.3602 6.72722 12.9535 5.9938 14.825L0.41729 12.435ZM8.19406 15.8872C8.77574 14.0663 9.56631 12.3465 10.5658 10.7279C11.5653 9.10937 12.7726 7.59195 14.1879 6.17569C16.4134 3.95014 18.9551 2.28705 21.8129 1.18642C24.6707 0.0857826 27.3388 -0.249061 29.8173 0.181886C30.2472 2.66034 29.9184 5.32846 28.831 8.18627C27.7435 11.0441 26.087 13.5858 23.8614 15.8113C22.4704 17.2023 20.953 18.4101 19.3092 19.4349C17.6653 20.4597 15.9329 21.2624 14.112 21.843L8.19406 15.8872ZM18.6643 11.3349C19.2459 11.9166 19.9606 12.2074 20.8084 12.2074C21.6561 12.2074 22.3703 11.9166 22.951 11.3349C23.5326 10.7532 23.8235 10.039 23.8235 9.19232C23.8235 8.3456 23.5326 7.63089 22.951 7.04821C22.3693 6.46653 21.6546 6.17569 20.8068 6.17569C19.9591 6.17569 19.2449 6.46653 18.6643 7.04821C18.0826 7.62988 17.7917 8.34459 17.7917 9.19232C17.7917 10.04 18.0826 10.7542 18.6643 11.3349ZM17.6021 29.5819L15.1742 24.0054C17.0457 23.2719 18.6455 22.5132 19.9738 21.7292C21.302 20.9452 22.7749 19.8704 24.3925 18.5047L24.7719 20.4774C24.873 20.9832 24.8477 21.4829 24.696 21.9766C24.5443 22.4702 24.2913 22.8936 23.9373 23.2467L17.6021 29.5819ZM2.84516 20.7429C3.73032 19.8577 4.80516 19.4086 6.06967 19.3954C7.33419 19.3823 8.40903 19.8188 9.29419 20.705C10.1794 21.5901 10.6219 22.665 10.6219 23.9295C10.6219 25.194 10.1794 26.2688 9.29419 27.154C8.66193 27.7863 7.60631 28.33 6.12734 28.7852C4.64836 29.2405 2.60591 29.6451 0 29.9992C0.354064 27.3943 0.758709 25.3584 1.21393 23.8916C1.66916 22.4247 2.2129 21.3752 2.84516 20.7429Z" fill="#FF986D"/>
</svg>
